<mxfile host="app.diagrams.net" agent="Mozilla/5.0 (Windows NT 10.0; Win64; x64) AppleWebKit/537.36 (KHTML, like Gecko) Chrome/131.0.0.0 Safari/537.36" version="24.8.6">
  <diagram name="Trang-1" id="D32bbkYCHxpt3GQtVnh8">
    <mxGraphModel dx="1290" dy="530" grid="1" gridSize="10" guides="1" tooltips="0" connect="1" arrows="1" fold="1" page="1" pageScale="1" pageWidth="827" pageHeight="1169" math="0" shadow="0">
      <root>
        <mxCell id="0" />
        <mxCell id="1" parent="0" />
        <mxCell id="t74zxnLgzHdX3DVq-mJc-2" value="" style="endArrow=none;html=1;rounded=0;" parent="1" edge="1">
          <mxGeometry width="50" height="50" relative="1" as="geometry">
            <mxPoint x="110" y="590" as="sourcePoint" />
            <mxPoint x="230" y="470" as="targetPoint" />
          </mxGeometry>
        </mxCell>
        <mxCell id="sSvKjNuaZj7PJ0kGBBHt-18" value="A" style="edgeLabel;html=1;align=center;verticalAlign=middle;resizable=0;points=[];" parent="t74zxnLgzHdX3DVq-mJc-2" vertex="1" connectable="0">
          <mxGeometry x="0.1724" y="-1" relative="1" as="geometry">
            <mxPoint x="-80" y="65" as="offset" />
          </mxGeometry>
        </mxCell>
        <mxCell id="sSvKjNuaZj7PJ0kGBBHt-19" value="B" style="edgeLabel;html=1;align=center;verticalAlign=middle;resizable=0;points=[];" parent="t74zxnLgzHdX3DVq-mJc-2" vertex="1" connectable="0">
          <mxGeometry x="0.5042" y="-1" relative="1" as="geometry">
            <mxPoint x="29" y="-41" as="offset" />
          </mxGeometry>
        </mxCell>
        <mxCell id="gxWgjW1lyEujooKoy0Oz-18" value="55" style="edgeLabel;html=1;align=center;verticalAlign=middle;resizable=0;points=[];" vertex="1" connectable="0" parent="t74zxnLgzHdX3DVq-mJc-2">
          <mxGeometry x="0.4138" y="2" relative="1" as="geometry">
            <mxPoint as="offset" />
          </mxGeometry>
        </mxCell>
        <mxCell id="t74zxnLgzHdX3DVq-mJc-3" value="" style="endArrow=none;html=1;rounded=0;" parent="1" edge="1">
          <mxGeometry width="50" height="50" relative="1" as="geometry">
            <mxPoint x="230" y="470" as="sourcePoint" />
            <mxPoint x="640" y="470" as="targetPoint" />
          </mxGeometry>
        </mxCell>
        <mxCell id="gxWgjW1lyEujooKoy0Oz-13" value="45" style="edgeLabel;html=1;align=center;verticalAlign=middle;resizable=0;points=[];" vertex="1" connectable="0" parent="t74zxnLgzHdX3DVq-mJc-3">
          <mxGeometry x="0.1115" relative="1" as="geometry">
            <mxPoint x="-18" as="offset" />
          </mxGeometry>
        </mxCell>
        <mxCell id="t74zxnLgzHdX3DVq-mJc-4" value="" style="endArrow=none;html=1;rounded=0;" parent="1" edge="1">
          <mxGeometry width="50" height="50" relative="1" as="geometry">
            <mxPoint x="110" y="590" as="sourcePoint" />
            <mxPoint x="520" y="590" as="targetPoint" />
          </mxGeometry>
        </mxCell>
        <mxCell id="sSvKjNuaZj7PJ0kGBBHt-21" value="D" style="edgeLabel;html=1;align=center;verticalAlign=middle;resizable=0;points=[];" parent="t74zxnLgzHdX3DVq-mJc-4" vertex="1" connectable="0">
          <mxGeometry x="0.935" relative="1" as="geometry">
            <mxPoint x="23" y="10" as="offset" />
          </mxGeometry>
        </mxCell>
        <mxCell id="gxWgjW1lyEujooKoy0Oz-22" value="45" style="edgeLabel;html=1;align=center;verticalAlign=middle;resizable=0;points=[];" vertex="1" connectable="0" parent="t74zxnLgzHdX3DVq-mJc-4">
          <mxGeometry x="0.162" y="-2" relative="1" as="geometry">
            <mxPoint x="-18" as="offset" />
          </mxGeometry>
        </mxCell>
        <mxCell id="t74zxnLgzHdX3DVq-mJc-8" value="" style="endArrow=none;html=1;rounded=0;" parent="1" edge="1">
          <mxGeometry width="50" height="50" relative="1" as="geometry">
            <mxPoint x="110" y="640" as="sourcePoint" />
            <mxPoint x="110" y="590" as="targetPoint" />
          </mxGeometry>
        </mxCell>
        <mxCell id="sSvKjNuaZj7PJ0kGBBHt-23" value="F" style="edgeLabel;html=1;align=center;verticalAlign=middle;resizable=0;points=[];" parent="t74zxnLgzHdX3DVq-mJc-8" vertex="1" connectable="0">
          <mxGeometry x="-0.3969" y="1" relative="1" as="geometry">
            <mxPoint x="-9" y="25" as="offset" />
          </mxGeometry>
        </mxCell>
        <mxCell id="gxWgjW1lyEujooKoy0Oz-16" value="10" style="edgeLabel;html=1;align=center;verticalAlign=middle;resizable=0;points=[];" vertex="1" connectable="0" parent="t74zxnLgzHdX3DVq-mJc-8">
          <mxGeometry x="-0.0041" relative="1" as="geometry">
            <mxPoint as="offset" />
          </mxGeometry>
        </mxCell>
        <mxCell id="t74zxnLgzHdX3DVq-mJc-15" value="" style="endArrow=none;html=1;rounded=0;" parent="1" edge="1">
          <mxGeometry width="50" height="50" relative="1" as="geometry">
            <mxPoint x="260" y="510" as="sourcePoint" />
            <mxPoint x="260" y="410" as="targetPoint" />
          </mxGeometry>
        </mxCell>
        <mxCell id="sSvKjNuaZj7PJ0kGBBHt-57" value="S" style="edgeLabel;html=1;align=center;verticalAlign=middle;resizable=0;points=[];" parent="t74zxnLgzHdX3DVq-mJc-15" vertex="1" connectable="0">
          <mxGeometry x="0.7587" relative="1" as="geometry">
            <mxPoint x="-10" y="-16" as="offset" />
          </mxGeometry>
        </mxCell>
        <mxCell id="gxWgjW1lyEujooKoy0Oz-23" value="20" style="edgeLabel;html=1;align=center;verticalAlign=middle;resizable=0;points=[];" vertex="1" connectable="0" parent="t74zxnLgzHdX3DVq-mJc-15">
          <mxGeometry x="0.1117" y="2" relative="1" as="geometry">
            <mxPoint as="offset" />
          </mxGeometry>
        </mxCell>
        <mxCell id="t74zxnLgzHdX3DVq-mJc-19" value="&lt;font style=&quot;font-size: 18px;&quot;&gt;Táº¤M PIN&amp;nbsp;&lt;br&gt;35x23cm&lt;/font&gt;" style="rounded=1;whiteSpace=wrap;html=1;fillColor=#6666FF;" parent="1" vertex="1">
          <mxGeometry x="280" y="360" width="260" height="90" as="geometry" />
        </mxCell>
        <mxCell id="t74zxnLgzHdX3DVq-mJc-27" value="" style="endArrow=none;html=1;rounded=0;" parent="1" edge="1">
          <mxGeometry width="50" height="50" relative="1" as="geometry">
            <mxPoint x="520" y="590" as="sourcePoint" />
            <mxPoint x="640" y="470" as="targetPoint" />
          </mxGeometry>
        </mxCell>
        <mxCell id="sSvKjNuaZj7PJ0kGBBHt-20" value="C" style="edgeLabel;html=1;align=center;verticalAlign=middle;resizable=0;points=[];" parent="t74zxnLgzHdX3DVq-mJc-27" vertex="1" connectable="0">
          <mxGeometry x="0.6511" relative="1" as="geometry">
            <mxPoint x="21" y="-31" as="offset" />
          </mxGeometry>
        </mxCell>
        <mxCell id="gxWgjW1lyEujooKoy0Oz-19" value="55" style="edgeLabel;html=1;align=center;verticalAlign=middle;resizable=0;points=[];" vertex="1" connectable="0" parent="t74zxnLgzHdX3DVq-mJc-27">
          <mxGeometry x="0.4511" y="-1" relative="1" as="geometry">
            <mxPoint as="offset" />
          </mxGeometry>
        </mxCell>
        <mxCell id="t74zxnLgzHdX3DVq-mJc-28" value="" style="endArrow=none;html=1;rounded=0;" parent="1" edge="1">
          <mxGeometry width="50" height="50" relative="1" as="geometry">
            <mxPoint x="560" y="510" as="sourcePoint" />
            <mxPoint x="560" y="430" as="targetPoint" />
          </mxGeometry>
        </mxCell>
        <mxCell id="gxWgjW1lyEujooKoy0Oz-2" value="Y" style="edgeLabel;html=1;align=center;verticalAlign=middle;resizable=0;points=[];" vertex="1" connectable="0" parent="t74zxnLgzHdX3DVq-mJc-28">
          <mxGeometry x="0.6253" y="-2" relative="1" as="geometry">
            <mxPoint x="18" y="-13" as="offset" />
          </mxGeometry>
        </mxCell>
        <mxCell id="gxWgjW1lyEujooKoy0Oz-25" value="15" style="edgeLabel;html=1;align=center;verticalAlign=middle;resizable=0;points=[];" vertex="1" connectable="0" parent="t74zxnLgzHdX3DVq-mJc-28">
          <mxGeometry x="0.2574" y="-1" relative="1" as="geometry">
            <mxPoint as="offset" />
          </mxGeometry>
        </mxCell>
        <mxCell id="t74zxnLgzHdX3DVq-mJc-32" value="" style="endArrow=none;html=1;rounded=0;" parent="1" edge="1">
          <mxGeometry width="50" height="50" relative="1" as="geometry">
            <mxPoint x="520" y="640" as="sourcePoint" />
            <mxPoint x="520" y="590" as="targetPoint" />
          </mxGeometry>
        </mxCell>
        <mxCell id="sSvKjNuaZj7PJ0kGBBHt-22" value="E" style="edgeLabel;html=1;align=center;verticalAlign=middle;resizable=0;points=[];" parent="t74zxnLgzHdX3DVq-mJc-32" vertex="1" connectable="0">
          <mxGeometry x="-0.3829" relative="1" as="geometry">
            <mxPoint x="10" y="25" as="offset" />
          </mxGeometry>
        </mxCell>
        <mxCell id="gxWgjW1lyEujooKoy0Oz-15" value="10" style="edgeLabel;html=1;align=center;verticalAlign=middle;resizable=0;points=[];" vertex="1" connectable="0" parent="t74zxnLgzHdX3DVq-mJc-32">
          <mxGeometry x="-0.0593" y="1" relative="1" as="geometry">
            <mxPoint as="offset" />
          </mxGeometry>
        </mxCell>
        <mxCell id="t74zxnLgzHdX3DVq-mJc-33" value="" style="endArrow=none;html=1;rounded=0;" parent="1" edge="1">
          <mxGeometry width="50" height="50" relative="1" as="geometry">
            <mxPoint x="640" y="520" as="sourcePoint" />
            <mxPoint x="640" y="470" as="targetPoint" />
          </mxGeometry>
        </mxCell>
        <mxCell id="sSvKjNuaZj7PJ0kGBBHt-25" value="H" style="edgeLabel;html=1;align=center;verticalAlign=middle;resizable=0;points=[];" parent="t74zxnLgzHdX3DVq-mJc-33" vertex="1" connectable="0">
          <mxGeometry x="-0.3947" relative="1" as="geometry">
            <mxPoint x="10" y="25" as="offset" />
          </mxGeometry>
        </mxCell>
        <mxCell id="gxWgjW1lyEujooKoy0Oz-14" value="10" style="edgeLabel;html=1;align=center;verticalAlign=middle;resizable=0;points=[];" vertex="1" connectable="0" parent="t74zxnLgzHdX3DVq-mJc-33">
          <mxGeometry x="0.0786" y="1" relative="1" as="geometry">
            <mxPoint as="offset" />
          </mxGeometry>
        </mxCell>
        <mxCell id="sSvKjNuaZj7PJ0kGBBHt-3" value="" style="endArrow=none;html=1;rounded=0;" parent="1" edge="1">
          <mxGeometry width="50" height="50" relative="1" as="geometry">
            <mxPoint x="260" y="510" as="sourcePoint" />
            <mxPoint x="560" y="510" as="targetPoint" />
          </mxGeometry>
        </mxCell>
        <mxCell id="sSvKjNuaZj7PJ0kGBBHt-34" value="Q" style="edgeLabel;html=1;align=center;verticalAlign=middle;resizable=0;points=[];" parent="sSvKjNuaZj7PJ0kGBBHt-3" vertex="1" connectable="0">
          <mxGeometry x="-0.9397" y="1" relative="1" as="geometry">
            <mxPoint x="-9" y="11" as="offset" />
          </mxGeometry>
        </mxCell>
        <mxCell id="sSvKjNuaZj7PJ0kGBBHt-35" value="R" style="edgeLabel;html=1;align=center;verticalAlign=middle;resizable=0;points=[];" parent="sSvKjNuaZj7PJ0kGBBHt-3" vertex="1" connectable="0">
          <mxGeometry x="0.9143" relative="1" as="geometry">
            <mxPoint x="13" y="10" as="offset" />
          </mxGeometry>
        </mxCell>
        <mxCell id="gxWgjW1lyEujooKoy0Oz-26" value="40" style="edgeLabel;html=1;align=center;verticalAlign=middle;resizable=0;points=[];" vertex="1" connectable="0" parent="sSvKjNuaZj7PJ0kGBBHt-3">
          <mxGeometry x="0.3099" y="-1" relative="1" as="geometry">
            <mxPoint as="offset" />
          </mxGeometry>
        </mxCell>
        <mxCell id="sSvKjNuaZj7PJ0kGBBHt-5" value="" style="endArrow=none;html=1;rounded=0;" parent="1" source="sSvKjNuaZj7PJ0kGBBHt-8" edge="1">
          <mxGeometry width="50" height="50" relative="1" as="geometry">
            <mxPoint x="350" y="540" as="sourcePoint" />
            <mxPoint x="400" y="540" as="targetPoint" />
          </mxGeometry>
        </mxCell>
        <mxCell id="sSvKjNuaZj7PJ0kGBBHt-11" value="" style="rounded=1;whiteSpace=wrap;html=1;fillColor=#B3B3B3;" parent="1" vertex="1">
          <mxGeometry x="550" y="395" width="20" height="35" as="geometry" />
        </mxCell>
        <mxCell id="gxWgjW1lyEujooKoy0Oz-27" style="edgeStyle=orthogonalEdgeStyle;rounded=0;orthogonalLoop=1;jettySize=auto;html=1;" edge="1" parent="1" source="sSvKjNuaZj7PJ0kGBBHt-42">
          <mxGeometry relative="1" as="geometry">
            <mxPoint x="330" y="675" as="targetPoint" />
          </mxGeometry>
        </mxCell>
        <mxCell id="sSvKjNuaZj7PJ0kGBBHt-42" value="" style="rounded=1;whiteSpace=wrap;html=1;fillColor=#B3B3B3;" parent="1" vertex="1">
          <mxGeometry x="270" y="660" width="40" height="30" as="geometry" />
        </mxCell>
        <mxCell id="sSvKjNuaZj7PJ0kGBBHt-8" value="" style="shape=parallelogram;perimeter=parallelogramPerimeter;whiteSpace=wrap;html=1;fixedSize=1;fillColor=#B3B3B3;" parent="1" vertex="1">
          <mxGeometry x="350" y="530" width="60" height="20" as="geometry" />
        </mxCell>
        <mxCell id="sSvKjNuaZj7PJ0kGBBHt-46" value="" style="endArrow=none;html=1;rounded=0;" parent="1" edge="1">
          <mxGeometry width="50" height="50" relative="1" as="geometry">
            <mxPoint x="150" y="550" as="sourcePoint" />
            <mxPoint x="560" y="550" as="targetPoint" />
          </mxGeometry>
        </mxCell>
        <mxCell id="sSvKjNuaZj7PJ0kGBBHt-50" value="O" style="edgeLabel;html=1;align=center;verticalAlign=middle;resizable=0;points=[];" parent="sSvKjNuaZj7PJ0kGBBHt-46" vertex="1" connectable="0">
          <mxGeometry x="0.8844" y="-1" relative="1" as="geometry">
            <mxPoint x="44" as="offset" />
          </mxGeometry>
        </mxCell>
        <mxCell id="sSvKjNuaZj7PJ0kGBBHt-51" value="P" style="edgeLabel;html=1;align=center;verticalAlign=middle;resizable=0;points=[];" parent="sSvKjNuaZj7PJ0kGBBHt-46" vertex="1" connectable="0">
          <mxGeometry x="-0.4739" y="-2" relative="1" as="geometry">
            <mxPoint x="-128" as="offset" />
          </mxGeometry>
        </mxCell>
        <mxCell id="gxWgjW1lyEujooKoy0Oz-20" value="45" style="edgeLabel;html=1;align=center;verticalAlign=middle;resizable=0;points=[];" vertex="1" connectable="0" parent="sSvKjNuaZj7PJ0kGBBHt-46">
          <mxGeometry x="-0.3864" y="-1" relative="1" as="geometry">
            <mxPoint as="offset" />
          </mxGeometry>
        </mxCell>
        <mxCell id="sSvKjNuaZj7PJ0kGBBHt-47" value="" style="endArrow=none;html=1;rounded=0;" parent="1" edge="1">
          <mxGeometry width="50" height="50" relative="1" as="geometry">
            <mxPoint x="170" y="530" as="sourcePoint" />
            <mxPoint x="580" y="530" as="targetPoint" />
          </mxGeometry>
        </mxCell>
        <mxCell id="sSvKjNuaZj7PJ0kGBBHt-48" value="M" style="edgeLabel;html=1;align=center;verticalAlign=middle;resizable=0;points=[];" parent="sSvKjNuaZj7PJ0kGBBHt-47" vertex="1" connectable="0">
          <mxGeometry x="-0.8398" relative="1" as="geometry">
            <mxPoint x="-43" y="-10" as="offset" />
          </mxGeometry>
        </mxCell>
        <mxCell id="sSvKjNuaZj7PJ0kGBBHt-49" value="N" style="edgeLabel;html=1;align=center;verticalAlign=middle;resizable=0;points=[];" parent="sSvKjNuaZj7PJ0kGBBHt-47" vertex="1" connectable="0">
          <mxGeometry x="0.6949" y="1" relative="1" as="geometry">
            <mxPoint x="83" as="offset" />
          </mxGeometry>
        </mxCell>
        <mxCell id="gxWgjW1lyEujooKoy0Oz-21" value="45" style="edgeLabel;html=1;align=center;verticalAlign=middle;resizable=0;points=[];" vertex="1" connectable="0" parent="sSvKjNuaZj7PJ0kGBBHt-47">
          <mxGeometry x="-0.3628" y="-2" relative="1" as="geometry">
            <mxPoint as="offset" />
          </mxGeometry>
        </mxCell>
        <mxCell id="sSvKjNuaZj7PJ0kGBBHt-52" value="" style="endArrow=none;dashed=1;html=1;dashPattern=1 3;strokeWidth=2;rounded=0;" parent="1" edge="1">
          <mxGeometry width="50" height="50" relative="1" as="geometry">
            <mxPoint x="230" y="510" as="sourcePoint" />
            <mxPoint x="230" y="470" as="targetPoint" />
          </mxGeometry>
        </mxCell>
        <mxCell id="sSvKjNuaZj7PJ0kGBBHt-53" value="G" style="edgeLabel;html=1;align=center;verticalAlign=middle;resizable=0;points=[];" parent="sSvKjNuaZj7PJ0kGBBHt-52" vertex="1" connectable="0">
          <mxGeometry x="0.164" y="1" relative="1" as="geometry">
            <mxPoint x="-9" y="23" as="offset" />
          </mxGeometry>
        </mxCell>
        <mxCell id="gxWgjW1lyEujooKoy0Oz-17" value="10" style="edgeLabel;html=1;align=center;verticalAlign=middle;resizable=0;points=[];" vertex="1" connectable="0" parent="sSvKjNuaZj7PJ0kGBBHt-52">
          <mxGeometry x="-0.0138" relative="1" as="geometry">
            <mxPoint as="offset" />
          </mxGeometry>
        </mxCell>
        <mxCell id="sSvKjNuaZj7PJ0kGBBHt-54" value="" style="endArrow=none;html=1;rounded=0;entryX=0;entryY=0.5;entryDx=0;entryDy=0;" parent="1" target="sSvKjNuaZj7PJ0kGBBHt-11" edge="1">
          <mxGeometry width="50" height="50" relative="1" as="geometry">
            <mxPoint x="540" y="395" as="sourcePoint" />
            <mxPoint x="590" y="345" as="targetPoint" />
          </mxGeometry>
        </mxCell>
        <mxCell id="sSvKjNuaZj7PJ0kGBBHt-55" value="" style="endArrow=none;html=1;rounded=0;exitX=1;exitY=0.705;exitDx=0;exitDy=0;exitPerimeter=0;" parent="1" source="t74zxnLgzHdX3DVq-mJc-19" edge="1">
          <mxGeometry width="50" height="50" relative="1" as="geometry">
            <mxPoint x="500" y="460" as="sourcePoint" />
            <mxPoint x="550" y="410" as="targetPoint" />
          </mxGeometry>
        </mxCell>
        <mxCell id="gxWgjW1lyEujooKoy0Oz-1" value="&lt;font style=&quot;font-size: 14px;&quot;&gt;&lt;font style=&quot;&quot;&gt;SQ = 20cm, RY = 15cm, QR= 40cm,&lt;/font&gt;&lt;span style=&quot;background-color: initial;&quot;&gt;&amp;nbsp;XW= 10cm(cáº£m biáº¿n)&lt;/span&gt;&lt;/font&gt;&lt;div&gt;&lt;div&gt;&lt;font size=&quot;3&quot;&gt;BC= AD= MN=PO= 45cm, AB=CD=55cm, AF = BG= CN= 10cm&lt;/font&gt;&lt;/div&gt;&lt;/div&gt;" style="text;strokeColor=none;align=center;fillColor=none;html=1;verticalAlign=middle;whiteSpace=wrap;rounded=0;" vertex="1" parent="1">
          <mxGeometry x="124" y="290" width="580" height="70" as="geometry" />
        </mxCell>
        <mxCell id="gxWgjW1lyEujooKoy0Oz-4" value="" style="endArrow=classic;startArrow=classic;html=1;rounded=0;" edge="1" parent="1">
          <mxGeometry width="50" height="50" relative="1" as="geometry">
            <mxPoint x="380" y="540" as="sourcePoint" />
            <mxPoint x="410" y="500" as="targetPoint" />
          </mxGeometry>
        </mxCell>
        <mxCell id="gxWgjW1lyEujooKoy0Oz-7" value="" style="endArrow=none;html=1;rounded=0;entryX=0.003;entryY=0.386;entryDx=0;entryDy=0;entryPerimeter=0;" edge="1" parent="1" target="t74zxnLgzHdX3DVq-mJc-19">
          <mxGeometry width="50" height="50" relative="1" as="geometry">
            <mxPoint x="260" y="410" as="sourcePoint" />
            <mxPoint x="310" y="360" as="targetPoint" />
          </mxGeometry>
        </mxCell>
        <mxCell id="gxWgjW1lyEujooKoy0Oz-8" value="" style="endArrow=none;html=1;rounded=0;entryX=-0.001;entryY=0.679;entryDx=0;entryDy=0;entryPerimeter=0;" edge="1" parent="1" target="t74zxnLgzHdX3DVq-mJc-19">
          <mxGeometry width="50" height="50" relative="1" as="geometry">
            <mxPoint x="260" y="410" as="sourcePoint" />
            <mxPoint x="310" y="360" as="targetPoint" />
          </mxGeometry>
        </mxCell>
        <mxCell id="gxWgjW1lyEujooKoy0Oz-10" value="" style="endArrow=none;html=1;rounded=0;" edge="1" parent="1">
          <mxGeometry width="50" height="50" relative="1" as="geometry">
            <mxPoint x="220" y="430" as="sourcePoint" />
            <mxPoint x="260" y="430" as="targetPoint" />
          </mxGeometry>
        </mxCell>
        <mxCell id="gxWgjW1lyEujooKoy0Oz-11" value="X" style="edgeLabel;html=1;align=center;verticalAlign=middle;resizable=0;points=[];" vertex="1" connectable="0" parent="gxWgjW1lyEujooKoy0Oz-10">
          <mxGeometry x="0.3917" y="3" relative="1" as="geometry">
            <mxPoint x="-38" as="offset" />
          </mxGeometry>
        </mxCell>
        <mxCell id="gxWgjW1lyEujooKoy0Oz-12" value="W" style="edgeLabel;html=1;align=center;verticalAlign=middle;resizable=0;points=[];" vertex="1" connectable="0" parent="gxWgjW1lyEujooKoy0Oz-10">
          <mxGeometry x="0.1433" relative="1" as="geometry">
            <mxPoint x="7" y="10" as="offset" />
          </mxGeometry>
        </mxCell>
        <mxCell id="gxWgjW1lyEujooKoy0Oz-28" value="Äá»NG CÆ  BÆ¯á»C (NEMA23)" style="text;strokeColor=none;align=center;fillColor=none;html=1;verticalAlign=middle;whiteSpace=wrap;rounded=0;" vertex="1" parent="1">
          <mxGeometry x="330" y="660" width="110" height="30" as="geometry" />
        </mxCell>
      </root>
    </mxGraphModel>
  </diagram>
</mxfile>
